<svg width="256" height="482" viewBox="0 0 256 482" fill="none" xmlns="http://www.w3.org/2000/svg">
<path d="M62.5551 197.352C62.5551 189.567 68.8665 183.255 76.652 183.255C84.4375 183.255 90.7489 189.567 90.7489 197.352V437H62.5551V197.352Z" fill="#2300F8" fill-opacity="0.3"/>
<path d="M0 261.67C0 253.884 6.3114 247.573 14.0969 247.573C21.8824 247.573 28.1938 253.884 28.1938 261.67V437H0V261.67Z" fill="#2300F8" fill-opacity="0.06"/>
<g filter="url(#filter0_di)">
<path d="M124.229 141.846C124.229 134.06 130.541 127.749 138.326 127.749C146.112 127.749 152.423 134.06 152.423 141.846V437H124.229V141.846Z" fill="#2300F8" fill-opacity="0.76" shape-rendering="crispEdges"/>
</g>
<g filter="url(#filter1_di)">
<path d="M186.784 51.0969C186.784 43.3114 193.096 37 200.881 37C208.667 37 214.978 43.3114 214.978 51.0969V437H186.784V51.0969Z" fill="#2300F8"/>
</g>
<defs>
<filter id="filter0_di" x="99.2291" y="106.749" width="78.1938" height="359.251" filterUnits="userSpaceOnUse" color-interpolation-filters="sRGB">
<feFlood flood-opacity="0" result="BackgroundImageFix"/>
<feColorMatrix in="SourceAlpha" type="matrix" values="0 0 0 0 0 0 0 0 0 0 0 0 0 0 0 0 0 0 127 0" result="hardAlpha"/>
<feOffset dy="4"/>
<feGaussianBlur stdDeviation="12.5"/>
<feComposite in2="hardAlpha" operator="out"/>
<feColorMatrix type="matrix" values="0 0 0 0 0.0799999 0 0 0 0 0 0 0 0 0 1 0 0 0 0.62 0"/>
<feBlend mode="normal" in2="BackgroundImageFix" result="effect1_dropShadow"/>
<feBlend mode="normal" in="SourceGraphic" in2="effect1_dropShadow" result="shape"/>
<feColorMatrix in="SourceAlpha" type="matrix" values="0 0 0 0 0 0 0 0 0 0 0 0 0 0 0 0 0 0 127 0" result="hardAlpha"/>
<feOffset dy="4"/>
<feGaussianBlur stdDeviation="4.5"/>
<feComposite in2="hardAlpha" operator="arithmetic" k2="-1" k3="1"/>
<feColorMatrix type="matrix" values="0 0 0 0 1 0 0 0 0 1 0 0 0 0 1 0 0 0 0.25 0"/>
<feBlend mode="normal" in2="shape" result="effect2_innerShadow"/>
</filter>
<filter id="filter1_di" x="145.784" y="0" width="110.194" height="482" filterUnits="userSpaceOnUse" color-interpolation-filters="sRGB">
<feFlood flood-opacity="0" result="BackgroundImageFix"/>
<feColorMatrix in="SourceAlpha" type="matrix" values="0 0 0 0 0 0 0 0 0 0 0 0 0 0 0 0 0 0 127 0" result="hardAlpha"/>
<feMorphology radius="1" operator="erode" in="SourceAlpha" result="effect1_dropShadow"/>
<feOffset dy="4"/>
<feGaussianBlur stdDeviation="21"/>
<feComposite in2="hardAlpha" operator="out"/>
<feColorMatrix type="matrix" values="0 0 0 0 0.137255 0 0 0 0 0 0 0 0 0 0.972549 0 0 0 1 0"/>
<feBlend mode="normal" in2="BackgroundImageFix" result="effect1_dropShadow"/>
<feBlend mode="normal" in="SourceGraphic" in2="effect1_dropShadow" result="shape"/>
<feColorMatrix in="SourceAlpha" type="matrix" values="0 0 0 0 0 0 0 0 0 0 0 0 0 0 0 0 0 0 127 0" result="hardAlpha"/>
<feOffset dy="4"/>
<feGaussianBlur stdDeviation="7"/>
<feComposite in2="hardAlpha" operator="arithmetic" k2="-1" k3="1"/>
<feColorMatrix type="matrix" values="0 0 0 0 1 0 0 0 0 1 0 0 0 0 1 0 0 0 0.25 0"/>
<feBlend mode="normal" in2="shape" result="effect2_innerShadow"/>
</filter>
</defs>
</svg>
