<svg class="fas fa-chevron-circle-right rounded-full w-10 h-10 mt-3 ml-1 md:mt-3 md:ml-8 lg:ml-12 lg:mt-4 xl:w-16 xl:h-16 xl:mt-7 xl:ml-14 2xl:ml-14 2xl:w-20 2xl:h-20" width="97" height="98" viewBox="0 0 97 98" fill="none" xmlns="http://www.w3.org/2000/svg">
<g filter="url(#filter0_dd)">
<ellipse cx="48.5" cy="49" rx="24" ry="23.5" transform="rotate(-90 48.5 49)" fill="#2D2D2D"/>
</g>
<mask id="path-2-outside-1" maskUnits="userSpaceOnUse" x="41.7297" y="37.8706" width="15" height="21" fill="black">
<rect fill="white" x="41.7297" y="37.8706" width="15" height="21"/>
<path fill-rule="evenodd" clip-rule="evenodd" d="M54.8831 46.5289C56.0119 47.6577 56.0119 49.4879 54.8831 50.6167C54.8826 50.6172 54.8821 50.6177 54.8816 50.6182L48.4758 57.024C47.347 58.1528 45.5168 58.1528 44.388 57.024C43.2592 55.8952 43.2592 54.0651 44.388 52.9362V52.9362C46.7979 50.5264 46.7979 46.6192 44.388 44.2093V44.2093C43.2592 43.0805 43.2592 41.2504 44.388 40.1216C45.5168 38.9928 47.347 38.9928 48.4758 40.1216L54.8831 46.5289Z"/>
</mask>
<g filter="url(#filter1_i)">
<path fill-rule="evenodd" clip-rule="evenodd" d="M54.8831 46.5289C56.0119 47.6577 56.0119 49.4879 54.8831 50.6167C54.8826 50.6172 54.8821 50.6177 54.8816 50.6182L48.4758 57.024C47.347 58.1528 45.5168 58.1528 44.388 57.024C43.2592 55.8952 43.2592 54.0651 44.388 52.9362V52.9362C46.7979 50.5264 46.7979 46.6192 44.388 44.2093V44.2093C43.2592 43.0805 43.2592 41.2504 44.388 40.1216C45.5168 38.9928 47.347 38.9928 48.4758 40.1216L54.8831 46.5289Z" fill="#FFD11A"/>
</g>
<path d="M54.8831 50.6167L54.176 49.9096L54.176 49.9096L54.8831 50.6167ZM54.8831 46.5289L55.5902 45.8218L55.5902 45.8218L54.8831 46.5289ZM54.8816 50.6182L54.1744 49.9111L54.175 49.9106L54.8816 50.6182ZM48.4758 57.024L49.1829 57.7311L49.1829 57.7311L48.4758 57.024ZM44.388 40.1216L43.6809 39.4145L43.6809 39.4145L44.388 40.1216ZM48.4758 40.1216L49.1829 39.4145L49.1829 39.4145L48.4758 40.1216ZM54.176 49.9096C54.9143 49.1713 54.9143 47.9743 54.176 47.236L55.5902 45.8218C57.1096 47.3411 57.1096 49.8044 55.5902 51.3238L54.176 49.9096ZM54.175 49.9106C54.1754 49.9101 54.1757 49.9098 54.176 49.9096L55.5903 51.3237C55.5895 51.3245 55.5887 51.3253 55.5881 51.3259L54.175 49.9106ZM47.7687 56.3169L54.1744 49.9111L55.5887 51.3253L49.1829 57.7311L47.7687 56.3169ZM45.0951 56.3169C45.8334 57.0552 47.0304 57.0552 47.7687 56.3169L49.1829 57.7311C47.6636 59.2504 45.2003 59.2504 43.6809 57.7311L45.0951 56.3169ZM45.0951 53.6434C44.3569 54.3816 44.3569 55.5786 45.0951 56.3169L43.6809 57.7311C42.1616 56.2118 42.1616 53.7485 43.6809 52.2291L45.0951 53.6434ZM45.0951 40.8287C44.3569 41.5669 44.3569 42.7639 45.0951 43.5022L43.6809 44.9164C42.1616 43.3971 42.1616 40.9338 43.6809 39.4145L45.0951 40.8287ZM47.7687 40.8287C47.0304 40.0904 45.8334 40.0904 45.0951 40.8287L43.6809 39.4145C45.2003 37.8951 47.6636 37.8951 49.1829 39.4145L47.7687 40.8287ZM54.176 47.236L47.7687 40.8287L49.1829 39.4145L55.5902 45.8218L54.176 47.236ZM43.6809 52.2291C45.7003 50.2098 45.7003 46.9358 43.6809 44.9164L45.0951 43.5022C47.8955 46.3026 47.8955 50.843 45.0951 53.6434L43.6809 52.2291Z" fill="#333030" fill-opacity="0.5" mask="url(#path-2-outside-1)"/>
<defs>
<filter id="filter0_dd" x="0" y="0" width="97" height="98" filterUnits="userSpaceOnUse" color-interpolation-filters="sRGB">
<feFlood flood-opacity="0" result="BackgroundImageFix"/>
<feColorMatrix in="SourceAlpha" type="matrix" values="0 0 0 0 0 0 0 0 0 0 0 0 0 0 0 0 0 0 127 0" result="hardAlpha"/>
<feOffset dx="-9" dy="-9"/>
<feGaussianBlur stdDeviation="8"/>
<feColorMatrix type="matrix" values="0 0 0 0 0.545833 0 0 0 0 0.545833 0 0 0 0 0.545833 0 0 0 0.08 0"/>
<feBlend mode="normal" in2="BackgroundImageFix" result="effect1_dropShadow"/>
<feColorMatrix in="SourceAlpha" type="matrix" values="0 0 0 0 0 0 0 0 0 0 0 0 0 0 0 0 0 0 127 0" result="hardAlpha"/>
<feOffset dx="9" dy="9"/>
<feGaussianBlur stdDeviation="8"/>
<feColorMatrix type="matrix" values="0 0 0 0 0 0 0 0 0 0 0 0 0 0 0 0 0 0 0.4 0"/>
<feBlend mode="normal" in2="effect1_dropShadow" result="effect2_dropShadow"/>
<feBlend mode="normal" in="SourceGraphic" in2="effect2_dropShadow" result="shape"/>
</filter>
<filter id="filter1_i" x="42.5414" y="38.275" width="16.1883" height="22.5957" filterUnits="userSpaceOnUse" color-interpolation-filters="sRGB">
<feFlood flood-opacity="0" result="BackgroundImageFix"/>
<feBlend mode="normal" in="SourceGraphic" in2="BackgroundImageFix" result="shape"/>
<feColorMatrix in="SourceAlpha" type="matrix" values="0 0 0 0 0 0 0 0 0 0 0 0 0 0 0 0 0 0 127 0" result="hardAlpha"/>
<feOffset dx="2" dy="2"/>
<feGaussianBlur stdDeviation="2"/>
<feComposite in2="hardAlpha" operator="arithmetic" k2="-1" k3="1"/>
<feColorMatrix type="matrix" values="0 0 0 0 0 0 0 0 0 0 0 0 0 0 0 0 0 0 0.7 0"/>
<feBlend mode="normal" in2="shape" result="effect1_innerShadow"/>
</filter>
</defs>
</svg>
