<svg width="212" height="294" viewBox="0 0 212 294" fill="none" xmlns="http://www.w3.org/2000/svg">
<path d="M288.888 293V294H289.888V293H288.888ZM185.528 293H184.528V294H185.528V293ZM175.736 101.512L175.009 102.199L175.029 102.219L175.049 102.239L175.736 101.512ZM135.48 97.16L135.927 98.0544L135.947 98.0447L135.966 98.0341L135.48 97.16ZM117.528 111.304L118.278 111.966L117.528 111.304ZM104.472 132.52L103.546 132.141L103.472 132.323V132.52H104.472ZM104.472 293V294H105.472V293H104.472ZM1.112 293H0.112V294H1.112V293ZM1.112 6.85599V5.85599H0.112V6.85599H1.112ZM94.136 6.85599H95.136V5.85599H94.136V6.85599ZM94.136 49.288H93.136V52.639L94.9725 49.836L94.136 49.288ZM120.248 23.176L120.796 24.0125L120.806 24.0059L120.816 23.9992L120.248 23.176ZM156.696 6.85599L156.951 7.82306L156.696 6.85599ZM274.744 38.408L273.862 38.8786L274.744 38.408ZM286.168 72.68L285.179 72.8298L285.18 72.8344L286.168 72.68ZM288.888 292H185.528V294H288.888V292ZM186.528 293V131.976H184.528V293H186.528ZM186.528 131.976C186.528 117.712 183.241 107.224 176.423 100.785L175.049 102.239C181.287 108.131 184.528 117.952 184.528 131.976H186.528ZM176.463 100.825C170.125 94.1144 162.615 90.72 153.976 90.72V92.72C162.02 92.72 169.016 95.8536 175.009 102.199L176.463 100.825ZM153.976 90.72C147.961 90.72 141.629 92.5997 134.994 96.2858L135.966 98.0341C142.387 94.4669 148.385 92.72 153.976 92.72V90.72ZM135.033 96.2656C128.376 99.5938 122.292 104.393 116.778 110.642L118.278 111.966C123.644 105.884 129.528 101.254 135.927 98.0544L135.033 96.2656ZM116.778 110.642C111.261 116.896 106.851 124.064 103.546 132.141L105.398 132.899C108.621 125.018 112.915 118.043 118.278 111.966L116.778 110.642ZM103.472 132.52V293H105.472V132.52H103.472ZM104.472 292H1.112V294H104.472V292ZM2.112 293V6.85599H0.112V293H2.112ZM1.112 7.85599H94.136V5.85599H1.112V7.85599ZM93.136 6.85599V49.288H95.136V6.85599H93.136ZM94.9725 49.836C101.788 39.4336 110.394 30.8278 120.796 24.0125L119.7 22.3395C109.068 29.3055 100.266 38.1077 93.2995 48.74L94.9725 49.836ZM120.816 23.9992C131.227 16.8187 143.268 11.4236 156.951 7.82306L156.442 5.88892C142.561 9.54166 130.303 15.0266 119.68 22.3528L120.816 23.9992ZM156.951 7.82306C170.638 4.22115 185.602 2.41599 201.848 2.41599V0.415993C185.454 0.415993 170.317 2.2375 156.442 5.88892L156.951 7.82306ZM201.848 2.41599C221.328 2.41599 236.725 5.84525 248.121 12.6118L249.143 10.8921C237.328 3.8774 221.536 0.415993 201.848 0.415993V2.41599ZM248.121 12.6118C259.585 19.4183 268.153 28.1749 273.862 38.8786L275.626 37.9374C269.73 26.881 260.89 17.867 249.143 10.8921L248.121 12.6118ZM273.862 38.8786C279.612 49.6604 283.383 60.9761 285.179 72.8298L287.157 72.5302C285.326 60.4479 281.481 48.9156 275.626 37.9374L273.862 38.8786ZM285.18 72.8344C286.987 84.3984 287.888 95.0447 287.888 104.776H289.888C289.888 94.9233 288.976 84.1723 287.156 72.5256L285.18 72.8344ZM287.888 104.776V293H289.888V104.776H287.888Z" fill="#FFD11A"/>
</svg>
